<svg width="41" height="40" viewBox="0 0 41 40" fill="none" xmlns="http://www.w3.org/2000/svg">
<path d="M10.3 36.5151L10.2954 36.5138C10.0818 36.451 9.92151 36.2333 9.93212 35.9841C10.3142 31.5033 14.9258 27.7832 20.6671 27.7832C26.4114 27.7832 31.0118 31.4918 31.4031 35.9966C31.4228 36.2394 31.2828 36.444 31.0444 36.5122L31.0443 36.5121L31.0342 36.5151C29.5768 36.9539 27.8218 37.1666 25.6671 37.1666H15.6671C13.5123 37.1666 11.7573 36.9539 10.3 36.5151ZM11.1441 34.9003L10.929 35.6796L11.7221 35.8358C12.8835 36.0645 14.1845 36.1666 15.6671 36.1666H25.6671C27.1496 36.1666 28.4507 36.0645 29.612 35.8358L30.4051 35.6796L30.19 34.9003C29.1906 31.2798 25.1607 28.7832 20.6671 28.7832C16.1735 28.7832 12.1435 31.2798 11.1441 34.9003Z" stroke="white" stroke-width="1.5"/>
<path d="M25.6667 3.3335H15.6667C7.33333 3.3335 4 6.66683 4 15.0002V25.0002C4 31.3002 5.9 34.7502 10.4333 36.0335C10.8 31.7002 15.25 28.2834 20.6667 28.2834C26.0833 28.2834 30.5333 31.7002 30.9 36.0335C35.4333 34.7502 37.3333 31.3002 37.3333 25.0002V15.0002C37.3333 6.66683 34 3.3335 25.6667 3.3335ZM20.6667 23.6168C17.3667 23.6168 14.7 20.9335 14.7 17.6335C14.7 14.3335 17.3667 11.6668 20.6667 11.6668C23.9667 11.6668 26.6333 14.3335 26.6333 17.6335C26.6333 20.9335 23.9667 23.6168 20.6667 23.6168Z" stroke="white" stroke-width="1.5" stroke-linecap="round" stroke-linejoin="round"/>
<path d="M20.6669 24.8665C16.6835 24.8665 13.4502 21.6165 13.4502 17.6332C13.4502 13.6499 16.6835 10.4165 20.6669 10.4165C24.6502 10.4165 27.8835 13.6499 27.8835 17.6332C27.8835 21.6165 24.6502 24.8665 20.6669 24.8665ZM20.6669 12.9165C18.0669 12.9165 15.9502 15.0332 15.9502 17.6332C15.9502 20.2499 18.0669 22.3665 20.6669 22.3665C23.2669 22.3665 25.3835 20.2499 25.3835 17.6332C25.3835 15.0332 23.2669 12.9165 20.6669 12.9165Z" fill="white"/>
</svg>
