<svg width="40" height="40" viewBox="0 0 40 40" fill="none" xmlns="http://www.w3.org/2000/svg">
<path d="M13.333 37.1996C12.8663 37.1996 12.383 37.083 11.9496 36.8497C10.9996 36.3497 10.4163 35.3496 10.4163 34.283V31.9164C5.38301 31.3998 2.08301 27.6996 2.08301 22.3996V12.3997C2.08301 6.66641 5.93301 2.81641 11.6663 2.81641H28.333C34.0663 2.81641 37.9163 6.66641 37.9163 12.3997V22.3996C37.9163 28.133 34.0663 31.983 28.333 31.983H22.0496L14.9496 36.7164C14.4663 37.0331 13.8997 37.1996 13.333 37.1996ZM11.6663 5.29972C7.36634 5.29972 4.58301 8.08306 4.58301 12.3831V22.3832C4.58301 26.6832 7.36634 29.4665 11.6663 29.4665C12.3497 29.4665 12.9163 30.0332 12.9163 30.7165V34.2665C12.9163 34.4832 13.0497 34.5831 13.133 34.6331C13.2163 34.6831 13.383 34.7331 13.5664 34.6164L20.9831 29.6832C21.1831 29.5498 21.433 29.4665 21.683 29.4665H28.3497C32.6497 29.4665 35.433 26.6832 35.433 22.3832V12.3831C35.433 8.08306 32.6497 5.29972 28.3497 5.29972H11.6663Z" fill="white"/>
<path d="M20 20.1831C19.3167 20.1831 18.75 19.6164 18.75 18.9331V18.5832C18.75 16.6498 20.1667 15.6998 20.7 15.3332C21.3167 14.9165 21.5166 14.6332 21.5166 14.1998C21.5166 13.3665 20.8334 12.6831 20 12.6831C19.1667 12.6831 18.4834 13.3665 18.4834 14.1998C18.4834 14.8832 17.9167 15.4498 17.2334 15.4498C16.5501 15.4498 15.9834 14.8832 15.9834 14.1998C15.9834 11.9832 17.7834 10.1831 20 10.1831C22.2167 10.1831 24.0166 11.9832 24.0166 14.1998C24.0166 16.0998 22.6167 17.0498 22.1 17.3998C21.45 17.8331 21.25 18.1165 21.25 18.5832V18.9331C21.25 19.6331 20.6834 20.1831 20 20.1831Z" fill="white"/>
<path d="M20 24.3335C19.3 24.3335 18.75 23.7668 18.75 23.0835C18.75 22.4002 19.3167 21.8335 20 21.8335C20.6833 21.8335 21.25 22.4002 21.25 23.0835C21.25 23.7668 20.7 24.3335 20 24.3335Z" fill="white"/>
</svg>
