<svg width="41" height="40" viewBox="0 0 41 40" fill="none" xmlns="http://www.w3.org/2000/svg">
<path d="M20.3327 38.0168C19.1827 38.0168 18.0993 37.4335 17.3327 36.4168L14.8327 33.0835C14.7827 33.0168 14.5827 32.9335 14.4993 32.9168H13.666C6.71602 32.9168 2.41602 31.0335 2.41602 21.6668V13.3335C2.41602 5.96683 6.29935 2.0835 13.666 2.0835H26.9993C34.366 2.0835 38.2494 5.96683 38.2494 13.3335V21.6668C38.2494 29.0335 34.366 32.9168 26.9993 32.9168H26.166C26.0327 32.9168 25.916 32.9835 25.8327 33.0835L23.3327 36.4168C22.566 37.4335 21.4827 38.0168 20.3327 38.0168ZM13.666 4.5835C7.69935 4.5835 4.91602 7.36683 4.91602 13.3335V21.6668C4.91602 29.2002 7.49935 30.4168 13.666 30.4168H14.4993C15.3493 30.4168 16.316 30.9002 16.8327 31.5835L19.3327 34.9168C19.916 35.6835 20.7493 35.6835 21.3327 34.9168L23.8327 31.5835C24.3827 30.8502 25.2493 30.4168 26.166 30.4168H26.9993C32.966 30.4168 35.7494 27.6335 35.7494 21.6668V13.3335C35.7494 7.36683 32.966 4.5835 26.9993 4.5835H13.666Z" fill="white"/>
<path d="M20.3327 19.9998C19.3993 19.9998 18.666 19.2498 18.666 18.3332C18.666 17.4165 19.416 16.6665 20.3327 16.6665C21.2493 16.6665 21.9993 17.4165 21.9993 18.3332C21.9993 19.2498 21.266 19.9998 20.3327 19.9998Z" fill="white"/>
<path d="M26.9997 19.9998C26.0663 19.9998 25.333 19.2498 25.333 18.3332C25.333 17.4165 26.083 16.6665 26.9997 16.6665C27.9163 16.6665 28.6663 17.4165 28.6663 18.3332C28.6663 19.2498 27.933 19.9998 26.9997 19.9998Z" fill="white"/>
<path d="M13.6667 19.9998C12.7333 19.9998 12 19.2498 12 18.3332C12 17.4165 12.75 16.6665 13.6667 16.6665C14.5833 16.6665 15.3333 17.4165 15.3333 18.3332C15.3333 19.2498 14.6 19.9998 13.6667 19.9998Z" fill="white"/>
</svg>
